<svg width="64" height="64" viewBox="0 0 64 64" fill="none" xmlns="http://www.w3.org/2000/svg">
<circle cx="32" cy="32" r="32" fill="#78350F"/>
<path fill-rule="evenodd" clip-rule="evenodd" d="M23.7609 20.5679C23.2235 20.2308 22.6333 19.9974 22.0168 19.8833C21.4003 19.7692 20.7839 19.7744 20.1832 19.904C19.5877 20.0337 19.0292 20.2775 18.5392 20.625C18.0491 20.9725 17.6381 21.4237 17.3325 21.9424C17.0269 22.4611 16.8267 23.042 16.7476 23.654C16.6686 24.266 16.7108 24.8884 16.8741 25.4952C17.1428 26.5015 18.3864 26.6934 19.24 26.0813L21.4162 24.5253L23.5976 22.9642C24.4512 22.3521 24.6514 21.1281 23.7609 20.5679Z" fill="white"/>
<path fill-rule="evenodd" clip-rule="evenodd" d="M46.7665 21.9424C46.4609 21.4237 46.0499 20.9777 45.5599 20.625C45.0698 20.2775 44.5113 20.0285 43.9159 19.904C43.3204 19.7744 42.6934 19.7692 42.0822 19.8833C41.4657 19.9974 40.8755 20.2308 40.3381 20.5679C39.4476 21.1281 39.6478 22.3521 40.5014 22.9642L42.6829 24.5253L44.859 26.0813C45.7127 26.6934 46.9562 26.5015 47.2249 25.4952C47.3883 24.8884 47.4304 24.2608 47.3514 23.654C47.2723 23.042 47.0721 22.4662 46.7665 21.9424Z" fill="white"/>
<path fill-rule="evenodd" clip-rule="evenodd" d="M33.8148 38.7985C32.7715 38.4458 31.6228 38.4458 30.5795 38.7985C29.9999 38.9955 29.4941 39.3016 29.5257 39.7632C29.5837 40.4686 30.706 41.677 31.5175 41.926C32.0128 42.0764 32.3236 42.066 32.8769 41.926C33.6884 41.7185 34.816 40.4686 34.8687 39.7632C34.9056 39.3016 34.3944 38.9955 33.8148 38.7985Z" fill="white"/>
<path fill-rule="evenodd" clip-rule="evenodd" d="M28.2561 36.5269C27.9663 36.1431 27.6027 35.8216 27.1917 35.583C26.7807 35.3444 26.3275 35.194 25.8586 35.1421C25.3896 35.0902 24.9101 35.1317 24.457 35.2718C24.0038 35.4118 23.577 35.64 23.2029 35.9512C22.8288 36.2624 22.5179 36.6462 22.2861 37.0767C21.9014 37.7977 22.5126 38.5549 23.3346 38.6483L25.4107 38.8817L27.5026 39.1203C28.3246 39.2136 29.0991 38.6172 28.8884 37.8288C28.7619 37.3516 28.5459 36.9108 28.2561 36.5269Z" fill="white"/>
<path fill-rule="evenodd" clip-rule="evenodd" d="M41.1236 35.8782C40.7495 35.567 40.3227 35.3388 39.8695 35.1988C39.4164 35.0587 38.9369 35.0172 38.4679 35.0691C37.999 35.121 37.5458 35.2714 37.1348 35.51C36.7238 35.7486 36.3603 36.0701 36.0704 36.4539C35.7806 36.8378 35.5646 37.2786 35.4381 37.7558C35.2274 38.5442 36.0019 39.1406 36.8187 39.0473L38.9105 38.8087L40.9919 38.5753C41.8139 38.4819 42.4251 37.7247 42.0404 37.0037C41.8086 36.5732 41.4925 36.1894 41.1236 35.8782Z" fill="white"/>
<path fill-rule="evenodd" clip-rule="evenodd" d="M51.0088 30.9C52.7213 29.0172 53.7594 26.5225 53.7277 23.7891C53.7119 22.2746 53.3589 20.7705 52.6897 19.396C50.8244 15.5372 46.1032 12.5237 41.2714 13.5299C41.1128 13.5636 40.9146 13.615 40.6875 13.6814C39.9688 13.8925 39.3086 14.2555 38.7263 14.7203C37.4359 15.7509 35.0642 16.4412 32.3511 16.4412C32.2995 16.4412 32.2484 16.4407 32.1973 16.4402C32.1462 16.4402 32.0951 16.4402 32.0434 16.4402C29.3308 16.4402 26.9586 15.7493 25.6682 14.7192C25.086 14.254 24.4257 13.8914 23.707 13.6803C23.4799 13.6134 23.2818 13.5626 23.1232 13.5289C18.2919 12.5227 13.5707 15.5361 11.7054 19.395C11.0362 20.7694 10.6831 22.2736 10.6673 23.7881C10.6357 26.5214 11.6737 29.0162 13.3862 30.899C13.5338 31.0649 13.6023 31.288 13.5654 31.5006C12.4009 38.0513 14.1187 43.4402 17.6543 47.2784C21.3691 51.3084 26.8174 53.3156 32.1024 53.4245H32.1973C32.2025 53.425 32.2078 53.425 32.2131 53.425H32.2921C37.5771 53.3161 43.0255 51.3089 46.7403 47.2789C50.2759 43.4408 51.9937 38.0518 50.8292 31.5011C50.7923 31.2885 50.8608 31.0654 51.0083 30.8995L51.0088 30.9ZM47.9158 29.7641C47.6524 29.9768 47.5364 30.3191 47.6155 30.6458C50.3607 42.0824 43.3053 48.7576 35.2012 50.1891H35.196C34.4161 50.3291 33.6258 50.4173 32.8301 50.4588C32.7827 50.4588 32.73 50.464 32.6826 50.464C32.535 50.4744 32.3822 50.4744 32.2347 50.4796H32.1978C32.1941 50.479 32.1899 50.479 32.1873 50.479H32.1609C32.0134 50.4739 31.8606 50.4739 31.713 50.4635C31.6656 50.4635 31.6129 50.4583 31.5655 50.4583C30.7698 50.4168 29.9795 50.3286 29.1996 50.1886H29.1944C21.0903 48.7571 14.0349 42.0819 16.7801 30.6453C16.8592 30.3186 16.7432 29.9762 16.4798 29.7636C14.7304 28.3632 13.6239 26.2159 13.6502 23.8145C13.6608 22.7253 13.919 21.6465 14.3932 20.661C15.7737 17.8032 19.2461 15.7234 22.5077 16.4028C22.8898 16.4811 23.9141 16.8136 24.9121 17.2814C25.2741 17.451 25.6139 17.6632 25.9322 17.9033C27.2395 18.8908 29.5569 19.548 32.1983 19.5506C34.8398 19.549 37.1572 18.8919 38.4645 17.9038C38.7827 17.6637 39.1221 17.4516 39.4846 17.2819C40.482 16.8141 41.5064 16.4822 41.8889 16.4033C45.1505 15.7239 48.6229 17.8037 50.0035 20.6616C50.4777 21.647 50.7359 22.7258 50.7464 23.815C50.7728 26.2165 49.6662 28.3637 47.9169 29.7641H47.9158Z" fill="white"/>
</svg>
